<?xml version="1.0" standalone="no"?>
<svg
  width="600"
  height="600"
  viewBox="0 0 600 600"
  xmlns="http://www.w3.org/2000/svg"
>
  <g transform="translate(300,300)">
    <path d="M110.6,-124.3C156.1,-93.7,214.4,-70.9,232.9,-31.4C251.4,8.1,230.1,64.3,198.7,111.2C167.4,158,126.1,195.5,75,220.2C23.9,244.9,-36.9,256.8,-80.7,235.1C-124.4,213.3,-151,157.9,-171.6,106.6C-192.2,55.3,-206.9,8.1,-193.9,-28.8C-180.9,-65.6,-140.3,-92.2,-103.4,-124.3C-66.4,-156.5,-33.2,-194.2,-0.3,-193.9C32.6,-193.5,65.1,-155,110.6,-124.3Z" fill="#c78283" />
  </g>
</svg>
    