<?xml version="1.0" standalone="no"?>
<svg
  width="600"
  height="600"
  viewBox="0 0 600 600"
  xmlns="http://www.w3.org/2000/svg"
>
  <g transform="translate(300,300)">
    <path d="M156.1,-185.1C201.3,-148.2,236,-98,239.5,-46.9C242.9,4.2,215,56.1,186.9,110.9C158.8,165.7,130.5,223.3,86.9,239.6C43.2,255.9,-15.8,230.9,-71.7,206.4C-127.6,182,-180.3,158.3,-213.3,115.9C-246.2,73.6,-259.5,12.8,-236.3,-28.3C-213.1,-69.3,-153.5,-90.6,-108,-127.4C-62.6,-164.2,-31.3,-216.6,12.1,-231C55.5,-245.5,111,-221.9,156.1,-185.1Z" fill="#f3d9dc" />
  </g>
</svg>
    